<svg width="99" height="73" viewBox="0 0 99 73" fill="none" xmlns="http://www.w3.org/2000/svg">
<path d="M90.75 0H8.25C3.75375 0.161111 0.165 3.66528 0 8.05556V64.4444C0.165 68.8347 3.75375 72.3389 8.25 72.5H90.75C95.2463 72.3389 98.835 68.8347 99 64.4444V8.05556C98.9241 5.94269 98.0305 3.93652 96.4995 2.44158C94.9685 0.946638 92.9139 0.074133 90.75 0ZM90.75 64.4444H8.25V8.05556H90.75V64.4444ZM57.75 56.3889V51.3542C57.75 44.6681 43.9725 41.2847 37.125 41.2847C30.2775 41.2847 16.5 44.6681 16.5 51.3542V56.3889H57.75ZM37.125 16.1111C34.39 16.1111 31.7669 17.172 29.833 19.0604C27.899 20.9488 26.8125 23.51 26.8125 26.1806C26.8125 27.5029 27.0792 28.8123 27.5975 30.034C28.1157 31.2556 28.8754 32.3657 29.833 33.3007C31.7669 35.1891 34.39 36.25 37.125 36.25C38.4793 36.25 39.8203 35.9895 41.0714 35.4835C42.3226 34.9775 43.4594 34.2358 44.417 33.3007C45.3746 32.3657 46.1343 31.2556 46.6525 30.034C47.1708 28.8123 47.4375 27.5029 47.4375 26.1806C47.4375 24.8582 47.1708 23.5488 46.6525 22.3271C46.1343 21.1055 45.3746 19.9954 44.417 19.0604C43.4594 18.1253 42.3226 17.3836 41.0714 16.8776C39.8203 16.3716 38.4793 16.1111 37.125 16.1111ZM57.75 16.1111V20.1389H82.5V16.1111H57.75ZM57.75 24.1667V28.1944H82.5V24.1667H57.75ZM57.75 32.2222V36.25H74.25V32.2222H57.75Z" fill="#DED27C"/>
</svg>
